<?xml version="1.0" encoding="UTF-8" standalone="no"?>
<!-- Created with Inkscape (http://www.inkscape.org/) -->

<svg
   xmlns:dc="http://purl.org/dc/elements/1.1/"
   xmlns:cc="http://creativecommons.org/ns#"
   xmlns:rdf="http://www.w3.org/1999/02/22-rdf-syntax-ns#"
   xmlns:svg="http://www.w3.org/2000/svg"
   xmlns="http://www.w3.org/2000/svg"
   version="1.1"
   width="306.17441"
   height="160.58682"
   id="svg2"
   xml:space="preserve"><metadata
     id="metadata8"><rdf:RDF><cc:Work
         rdf:about=""><dc:format>image/svg+xml</dc:format><dc:type
           rdf:resource="http://purl.org/dc/dcmitype/StillImage" /><dc:title></dc:title></cc:Work></rdf:RDF></metadata><defs
     id="defs6"><clipPath
       id="clipPath272"><path
         d="M 0,0 254,0 254,73 0,73 0,0 z"
         id="path274" /></clipPath><clipPath
       id="clipPath376"><path
         d="M 0,0 449,0 449,235 0,235 0,0 z"
         id="path378" /></clipPath><clipPath
       id="clipPath390"><path
         d="M 0,2350 0,0 l 4490,0 0,2350 -4490,0 z m 1546,-285 0,36 -90.6,0 72,-18 -72,-18 90.6,0 z"
         id="path392" /></clipPath><clipPath
       id="clipPath406"><path
         d="M 0,2350 0,0 l 4490,0 0,2350 -4490,0 z m 88,-429 0,-36 90.6,0 -72,18 72,18 -90.6,0 z"
         id="path408" /></clipPath><clipPath
       id="clipPath424"><path
         d="M 0,2350 0,0 l 4490,0 0,2350 -4490,0 z m 1546,-645 0,36 -90.6,0 72,-18 -72,-18 90.6,0 z"
         id="path426" /></clipPath><clipPath
       id="clipPath442"><path
         d="M 0,2350 0,0 l 4490,0 0,2350 -4490,0 z m 2986,-690 0,36 -90.6,0 72,-18 -72,-18 90.6,0 z"
         id="path444" /></clipPath><clipPath
       id="clipPath458"><path
         d="M 0,2350 0,0 l 4490,0 0,2350 -4490,0 z m 1528,-834 0,-36 90.6,0 -72,18 72,18 -90.6,0 z"
         id="path460" /></clipPath><clipPath
       id="clipPath474"><path
         d="M 0,2350 0,0 l 4490,0 0,2350 -4490,0 z m 88,-879 0,-36 90.6,0 -72,18 72,18 -90.6,0 z"
         id="path476" /></clipPath><clipPath
       id="clipPath492"><path
         d="M 0,2350 0,0 l 4490,0 0,2350 -4490,0 z m 1546,-1230 0,36 -90.6,0 72,-18 -72,-18 90.6,0 z"
         id="path494" /></clipPath><clipPath
       id="clipPath508"><path
         d="M 0,2350 0,0 l 4490,0 0,2350 -4490,0 z m 2986,-1275 0,36 -90.6,0 72,-18 -72,-18 90.6,0 z"
         id="path510" /></clipPath><clipPath
       id="clipPath524"><path
         d="M 0,2350 0,0 l 4490,0 0,2350 -4490,0 z m 4291,-1410 0,36 -90.6,0 72,-18 -72,-18 90.6,0 z m -1323,36 0,-36 90.6,0 -72,18 72,18 -90.6,0 z"
         id="path526" /></clipPath><clipPath
       id="clipPath544"><path
         d="M 0,2350 0,0 l 4490,0 0,2350 -4490,0 z m 1528,-1464 0,-36 90.6,0 -72,18 72,18 -90.6,0 z"
         id="path546" /></clipPath><clipPath
       id="clipPath560"><path
         d="M 0,2350 0,0 l 4490,0 0,2350 -4490,0 z m 88,-1509 0,-36 90.6,0 -72,18 72,18 -90.6,0 z"
         id="path562" /></clipPath><clipPath
       id="clipPath576"><path
         d="M 0,2350 0,0 l 4490,0 0,2350 -4490,0 z m 1546,-1770 0,36 -90.6,0 72,-18 -72,-18 90.6,0 z"
         id="path578" /></clipPath><clipPath
       id="clipPath592"><path
         d="M 0,2350 0,0 l 4490,0 0,2350 -4490,0 z m 2986,-1815 0,36 -90.6,0 72,-18 -72,-18 90.6,0 z"
         id="path594" /></clipPath><clipPath
       id="clipPath608"><path
         d="M 0,2350 0,0 l 4490,0 0,2350 -4490,0 z m 4291,-1860 0,36 -90.6,0 72,-18 -72,-18 90.6,0 z"
         id="path610" /></clipPath><clipPath
       id="clipPath624"><path
         d="M 0,2350 0,0 l 4490,0 0,2350 -4490,0 z m 2968,-2004 0,-36 90.6,0 -72,18 72,18 -90.6,0 z"
         id="path626" /></clipPath><clipPath
       id="clipPath640"><path
         d="M 0,2350 0,0 l 4490,0 0,2350 -4490,0 z m 2968,-2049 0,-36 90.6,0 -72,18 72,18 -90.6,0 z"
         id="path642" /></clipPath><clipPath
       id="clipPath656"><path
         d="M 0,2350 0,0 l 4490,0 0,2350 -4490,0 z m 2968,-2094 0,-36 90.6,0 -72,18 72,18 -90.6,0 z"
         id="path658" /></clipPath><clipPath
       id="clipPath672"><path
         d="M 0,2350 0,0 l 4490,0 0,2350 -4490,0 z m 1528,-2049 0,-36 90.6,0 -72,18 72,18 -90.6,0 z"
         id="path674" /></clipPath><clipPath
       id="clipPath688"><path
         d="M 0,2350 0,0 l 4490,0 0,2350 -4490,0 z m 1528,-2139 0,-36 90.6,0 -72,18 72,18 -90.6,0 z"
         id="path690" /></clipPath><clipPath
       id="clipPath704"><path
         d="M 0,2350 0,0 l 4490,0 0,2350 -4490,0 z m 1528,-2094 0,-36 90.6,0 -72,18 72,18 -90.6,0 z"
         id="path706" /></clipPath><clipPath
       id="clipPath720"><path
         d="M 0,2350 0,0 l 4490,0 0,2350 -4490,0 z m 88,-2139 0,-36 90.6,0 -72,18 72,18 -90.6,0 z"
         id="path722" /></clipPath><clipPath
       id="clipPath736"><path
         d="M 0,2350 0,0 l 4490,0 0,2350 -4490,0 z m 88,-2184 0,-36 90.6,0 -72,18 72,18 -90.6,0 z"
         id="path738" /></clipPath><clipPath
       id="clipPath752"><path
         d="M 0,2350 0,0 l 4490,0 0,2350 -4490,0 z m 88,-2229 0,-35.9998 90.6,0 -72,17.9998 72,18 -90.6,0 z"
         id="path754" /></clipPath><clipPath
       id="clipPath376-6"><path
         d="M 0,0 449,0 449,235 0,235 0,0 z"
         id="path378-7" /></clipPath><clipPath
       id="clipPath390-5"><path
         d="M 0,2350 0,0 l 4490,0 0,2350 -4490,0 z m 1546,-285 0,36 -90.6,0 72,-18 -72,-18 90.6,0 z"
         id="path392-4" /></clipPath><clipPath
       id="clipPath406-7"><path
         d="M 0,2350 0,0 l 4490,0 0,2350 -4490,0 z m 88,-429 0,-36 90.6,0 -72,18 72,18 -90.6,0 z"
         id="path408-5" /></clipPath><clipPath
       id="clipPath424-5"><path
         d="M 0,2350 0,0 l 4490,0 0,2350 -4490,0 z m 1546,-645 0,36 -90.6,0 72,-18 -72,-18 90.6,0 z"
         id="path426-2" /></clipPath><clipPath
       id="clipPath442-2"><path
         d="M 0,2350 0,0 l 4490,0 0,2350 -4490,0 z m 2986,-690 0,36 -90.6,0 72,-18 -72,-18 90.6,0 z"
         id="path444-7" /></clipPath><clipPath
       id="clipPath458-5"><path
         d="M 0,2350 0,0 l 4490,0 0,2350 -4490,0 z m 1528,-834 0,-36 90.6,0 -72,18 72,18 -90.6,0 z"
         id="path460-5" /></clipPath><clipPath
       id="clipPath474-0"><path
         d="M 0,2350 0,0 l 4490,0 0,2350 -4490,0 z m 88,-879 0,-36 90.6,0 -72,18 72,18 -90.6,0 z"
         id="path476-6" /></clipPath><clipPath
       id="clipPath492-6"><path
         d="M 0,2350 0,0 l 4490,0 0,2350 -4490,0 z m 1546,-1230 0,36 -90.6,0 72,-18 -72,-18 90.6,0 z"
         id="path494-5" /></clipPath><clipPath
       id="clipPath508-1"><path
         d="M 0,2350 0,0 l 4490,0 0,2350 -4490,0 z m 2986,-1275 0,36 -90.6,0 72,-18 -72,-18 90.6,0 z"
         id="path510-1" /></clipPath><clipPath
       id="clipPath524-4"><path
         d="M 0,2350 0,0 l 4490,0 0,2350 -4490,0 z m 4291,-1410 0,36 -90.6,0 72,-18 -72,-18 90.6,0 z m -1323,36 0,-36 90.6,0 -72,18 72,18 -90.6,0 z"
         id="path526-2" /></clipPath><clipPath
       id="clipPath544-5"><path
         d="M 0,2350 0,0 l 4490,0 0,2350 -4490,0 z m 1528,-1464 0,-36 90.6,0 -72,18 72,18 -90.6,0 z"
         id="path546-0" /></clipPath><clipPath
       id="clipPath560-4"><path
         d="M 0,2350 0,0 l 4490,0 0,2350 -4490,0 z m 88,-1509 0,-36 90.6,0 -72,18 72,18 -90.6,0 z"
         id="path562-8" /></clipPath><clipPath
       id="clipPath576-6"><path
         d="M 0,2350 0,0 l 4490,0 0,2350 -4490,0 z m 1546,-1770 0,36 -90.6,0 72,-18 -72,-18 90.6,0 z"
         id="path578-3" /></clipPath><clipPath
       id="clipPath592-3"><path
         d="M 0,2350 0,0 l 4490,0 0,2350 -4490,0 z m 2986,-1815 0,36 -90.6,0 72,-18 -72,-18 90.6,0 z"
         id="path594-8" /></clipPath><clipPath
       id="clipPath608-1"><path
         d="M 0,2350 0,0 l 4490,0 0,2350 -4490,0 z m 4291,-1860 0,36 -90.6,0 72,-18 -72,-18 90.6,0 z"
         id="path610-7" /></clipPath><clipPath
       id="clipPath624-2"><path
         d="M 0,2350 0,0 l 4490,0 0,2350 -4490,0 z m 2968,-2004 0,-36 90.6,0 -72,18 72,18 -90.6,0 z"
         id="path626-9" /></clipPath><clipPath
       id="clipPath640-5"><path
         d="M 0,2350 0,0 l 4490,0 0,2350 -4490,0 z m 2968,-2049 0,-36 90.6,0 -72,18 72,18 -90.6,0 z"
         id="path642-7" /></clipPath><clipPath
       id="clipPath656-3"><path
         d="M 0,2350 0,0 l 4490,0 0,2350 -4490,0 z m 2968,-2094 0,-36 90.6,0 -72,18 72,18 -90.6,0 z"
         id="path658-2" /></clipPath><clipPath
       id="clipPath672-2"><path
         d="M 0,2350 0,0 l 4490,0 0,2350 -4490,0 z m 1528,-2049 0,-36 90.6,0 -72,18 72,18 -90.6,0 z"
         id="path674-9" /></clipPath><clipPath
       id="clipPath688-6"><path
         d="M 0,2350 0,0 l 4490,0 0,2350 -4490,0 z m 1528,-2139 0,-36 90.6,0 -72,18 72,18 -90.6,0 z"
         id="path690-6" /></clipPath><clipPath
       id="clipPath704-8"><path
         d="M 0,2350 0,0 l 4490,0 0,2350 -4490,0 z m 1528,-2094 0,-36 90.6,0 -72,18 72,18 -90.6,0 z"
         id="path706-1" /></clipPath><clipPath
       id="clipPath720-4"><path
         d="M 0,2350 0,0 l 4490,0 0,2350 -4490,0 z m 88,-2139 0,-36 90.6,0 -72,18 72,18 -90.6,0 z"
         id="path722-9" /></clipPath><clipPath
       id="clipPath736-0"><path
         d="M 0,2350 0,0 l 4490,0 0,2350 -4490,0 z m 88,-2184 0,-36 90.6,0 -72,18 72,18 -90.6,0 z"
         id="path738-0" /></clipPath><clipPath
       id="clipPath752-6"><path
         d="M 0,2350 0,0 l 4490,0 0,2350 -4490,0 z m 88,-2229 0,-35.9998 90.6,0 -72,17.9998 72,18 -90.6,0 z"
         id="path754-1" /></clipPath></defs><g
     transform="matrix(1.25,0,0,-1.25,-14.473034,-273.45921)"
     id="g10"><g
       transform="matrix(0.55241,0,0,0.55241,11.138046,-347.90028)"
       id="g368"><g
         id="g370"><g
           id="g372"><g
             clip-path="url(#clipPath376-6)"
             id="g374"><g
               transform="scale(0.1,0.1)"
               id="g380"><g
                 id="g382"><path
                   d="M 2977,2218 2977,13.0002"
                   id="path384"
                   style="fill:none;stroke:#000000;stroke-width:9;stroke-linecap:butt;stroke-linejoin:miter;stroke-miterlimit:10;stroke-opacity:1;stroke-dasharray:none" /></g><g
                 id="g386"><g
                   clip-path="url(#clipPath390-5)"
                   id="g388"><path
                     d="m 97,2083 1440,0"
                     id="path394"
                     style="fill:none;stroke:#000000;stroke-width:4.5;stroke-linecap:butt;stroke-linejoin:miter;stroke-miterlimit:10;stroke-opacity:1;stroke-dasharray:none" /></g></g><g
                 id="g396"><path
                   d="m 1455.4,2065 72,18 -72,18 0,-36"
                   id="path398"
                   style="fill:#000000;fill-opacity:1;fill-rule:evenodd;stroke:none" /><path
                   d="m 1455.4,2065 72,18 -72,18 0,-36 z"
                   id="path400"
                   style="fill:none;stroke:#000000;stroke-width:4.5;stroke-linecap:butt;stroke-linejoin:miter;stroke-miterlimit:10;stroke-opacity:1;stroke-dasharray:none" /></g><g
                 id="g402"><g
                   clip-path="url(#clipPath406-7)"
                   id="g404"><path
                     d="M 1537,1903 97,1903"
                     id="path410"
                     style="fill:none;stroke:#000000;stroke-width:4.5;stroke-linecap:butt;stroke-linejoin:miter;stroke-miterlimit:10;stroke-opacity:1;stroke-dasharray:none" /></g></g><g
                 id="g412"><path
                   d="m 178.6,1921 -72,-18 72,-18 0,36"
                   id="path414"
                   style="fill:#000000;fill-opacity:1;fill-rule:evenodd;stroke:none" /><path
                   d="m 178.6,1921 -72,-18 72,-18 0,36 z"
                   id="path416"
                   style="fill:none;stroke:#000000;stroke-width:4.5;stroke-linecap:butt;stroke-linejoin:miter;stroke-miterlimit:10;stroke-opacity:1;stroke-dasharray:none" /><path
                   d="M 97,2218 97,13.0002"
                   id="path418"
                   style="fill:none;stroke:#000000;stroke-width:9;stroke-linecap:butt;stroke-linejoin:miter;stroke-miterlimit:10;stroke-opacity:1;stroke-dasharray:none" /></g><g
                 id="g420"><g
                   clip-path="url(#clipPath424-5)"
                   id="g422"><path
                     d="m 97,1723 1440,0"
                     id="path428"
                     style="fill:none;stroke:#000000;stroke-width:4.5;stroke-linecap:butt;stroke-linejoin:miter;stroke-miterlimit:10;stroke-opacity:1;stroke-dasharray:none" /></g></g><g
                 id="g430"><path
                   d="m 1455.4,1705 72,18 -72,18 0,-36"
                   id="path432"
                   style="fill:#000000;fill-opacity:1;fill-rule:evenodd;stroke:none" /><path
                   d="m 1455.4,1705 72,18 -72,18 0,-36 z"
                   id="path434"
                   style="fill:none;stroke:#000000;stroke-width:4.5;stroke-linecap:butt;stroke-linejoin:miter;stroke-miterlimit:10;stroke-opacity:1;stroke-dasharray:none" /><path
                   d="M 1537,2218 1537,13.0002"
                   id="path436"
                   style="fill:none;stroke:#000000;stroke-width:9;stroke-linecap:butt;stroke-linejoin:miter;stroke-miterlimit:10;stroke-opacity:1;stroke-dasharray:none" /></g><g
                 id="g438"><g
                   clip-path="url(#clipPath442-2)"
                   id="g440"><path
                     d="m 1537,1678 1440,0"
                     id="path446"
                     style="fill:none;stroke:#000000;stroke-width:4.5;stroke-linecap:butt;stroke-linejoin:miter;stroke-miterlimit:10;stroke-opacity:1;stroke-dasharray:none" /></g></g><g
                 id="g448"><path
                   d="m 2895.4,1660 72,18 -72,18 0,-36"
                   id="path450"
                   style="fill:#000000;fill-opacity:1;fill-rule:evenodd;stroke:none" /><path
                   d="m 2895.4,1660 72,18 -72,18 0,-36 z"
                   id="path452"
                   style="fill:none;stroke:#000000;stroke-width:4.5;stroke-linecap:butt;stroke-linejoin:miter;stroke-miterlimit:10;stroke-opacity:1;stroke-dasharray:none" /></g><g
                 id="g454"><g
                   clip-path="url(#clipPath458-5)"
                   id="g456"><path
                     d="m 2977,1498 -1440,0"
                     id="path462"
                     style="fill:none;stroke:#000000;stroke-width:4.5;stroke-linecap:butt;stroke-linejoin:miter;stroke-miterlimit:10;stroke-opacity:1;stroke-dasharray:none" /></g></g><g
                 id="g464"><path
                   d="m 1618.6,1516 -72,-18 72,-18 0,36"
                   id="path466"
                   style="fill:#000000;fill-opacity:1;fill-rule:evenodd;stroke:none" /><path
                   d="m 1618.6,1516 -72,-18 72,-18 0,36 z"
                   id="path468"
                   style="fill:none;stroke:#000000;stroke-width:4.5;stroke-linecap:butt;stroke-linejoin:miter;stroke-miterlimit:10;stroke-opacity:1;stroke-dasharray:none" /></g><g
                 id="g470"><g
                   clip-path="url(#clipPath474-0)"
                   id="g472"><path
                     d="M 1537,1453 97,1453"
                     id="path478"
                     style="fill:none;stroke:#000000;stroke-width:4.5;stroke-linecap:butt;stroke-linejoin:miter;stroke-miterlimit:10;stroke-opacity:1;stroke-dasharray:none" /></g></g><g
                 id="g480"><path
                   d="m 178.6,1471 -72,-18 72,-18 0,36"
                   id="path482"
                   style="fill:#000000;fill-opacity:1;fill-rule:evenodd;stroke:none" /><path
                   d="m 178.6,1471 -72,-18 72,-18 0,36 z"
                   id="path484"
                   style="fill:none;stroke:#000000;stroke-width:4.5;stroke-linecap:butt;stroke-linejoin:miter;stroke-miterlimit:10;stroke-opacity:1;stroke-dasharray:none" /><path
                   d="m 7,1318 4365,0"
                   id="path486"
                   style="fill:none;stroke:#000000;stroke-width:4.5;stroke-linecap:butt;stroke-linejoin:miter;stroke-miterlimit:10;stroke-opacity:1;stroke-dasharray:9, 27;stroke-dashoffset:27" /></g><g
                 id="g488"><g
                   clip-path="url(#clipPath492-6)"
                   id="g490"><path
                     d="m 97,1138 1440,0"
                     id="path496"
                     style="fill:none;stroke:#000000;stroke-width:4.5;stroke-linecap:butt;stroke-linejoin:miter;stroke-miterlimit:10;stroke-opacity:1;stroke-dasharray:none" /></g></g><g
                 id="g498"><path
                   d="m 1455.4,1120 72,18 -72,18 0,-36"
                   id="path500"
                   style="fill:#000000;fill-opacity:1;fill-rule:evenodd;stroke:none" /><path
                   d="m 1455.4,1120 72,18 -72,18 0,-36 z"
                   id="path502"
                   style="fill:none;stroke:#000000;stroke-width:4.5;stroke-linecap:butt;stroke-linejoin:miter;stroke-miterlimit:10;stroke-opacity:1;stroke-dasharray:none" /></g><g
                 id="g504"><g
                   clip-path="url(#clipPath508-1)"
                   id="g506"><path
                     d="m 1537,1093 1440,0"
                     id="path512"
                     style="fill:none;stroke:#000000;stroke-width:4.5;stroke-linecap:butt;stroke-linejoin:miter;stroke-miterlimit:10;stroke-opacity:1;stroke-dasharray:none" /></g></g><g
                 id="g514"><path
                   d="m 2895.4,1075 72,18 -72,18 0,-36"
                   id="path516"
                   style="fill:#000000;fill-opacity:1;fill-rule:evenodd;stroke:none" /><path
                   d="m 2895.4,1075 72,18 -72,18 0,-36 z"
                   id="path518"
                   style="fill:none;stroke:#000000;stroke-width:4.5;stroke-linecap:butt;stroke-linejoin:miter;stroke-miterlimit:10;stroke-opacity:1;stroke-dasharray:none" /></g><g
                 id="g520"><g
                   clip-path="url(#clipPath524-4)"
                   id="g522"><path
                     d="m 2977,958 1305,0"
                     id="path528"
                     style="fill:none;stroke:#000000;stroke-width:4.5;stroke-linecap:butt;stroke-linejoin:miter;stroke-miterlimit:10;stroke-opacity:1;stroke-dasharray:36;stroke-dashoffset:0" /></g></g><g
                 id="g530"><path
                   d="m 3058.6,976 -72,-18 72,-18 0,36"
                   id="path532"
                   style="fill:#000000;fill-opacity:1;fill-rule:evenodd;stroke:none" /><path
                   d="m 3058.6,976 -72,-18 72,-18 0,36 z"
                   id="path534"
                   style="fill:none;stroke:#000000;stroke-width:4.5;stroke-linecap:butt;stroke-linejoin:miter;stroke-miterlimit:10;stroke-opacity:1;stroke-dasharray:none" /><path
                   d="m 4200.4,940 72,18 -72,18 0,-36"
                   id="path536"
                   style="fill:#000000;fill-opacity:1;fill-rule:evenodd;stroke:none" /><path
                   d="m 4200.4,940 72,18 -72,18 0,-36 z"
                   id="path538"
                   style="fill:none;stroke:#000000;stroke-width:4.5;stroke-linecap:butt;stroke-linejoin:miter;stroke-miterlimit:10;stroke-opacity:1;stroke-dasharray:none" /></g><g
                 id="g540"><g
                   clip-path="url(#clipPath544-5)"
                   id="g542"><path
                     d="m 2977,868 -1440,0"
                     id="path548"
                     style="fill:none;stroke:#000000;stroke-width:4.5;stroke-linecap:butt;stroke-linejoin:miter;stroke-miterlimit:10;stroke-opacity:1;stroke-dasharray:none" /></g></g><g
                 id="g550"><path
                   d="m 1618.6,886 -72,-18 72,-18 0,36"
                   id="path552"
                   style="fill:#000000;fill-opacity:1;fill-rule:evenodd;stroke:none" /><path
                   d="m 1618.6,886 -72,-18 72,-18 0,36 z"
                   id="path554"
                   style="fill:none;stroke:#000000;stroke-width:4.5;stroke-linecap:butt;stroke-linejoin:miter;stroke-miterlimit:10;stroke-opacity:1;stroke-dasharray:none" /></g><g
                 id="g556"><g
                   clip-path="url(#clipPath560-4)"
                   id="g558"><path
                     d="M 1537,823 97,823"
                     id="path564"
                     style="fill:none;stroke:#000000;stroke-width:4.5;stroke-linecap:butt;stroke-linejoin:miter;stroke-miterlimit:10;stroke-opacity:1;stroke-dasharray:none" /></g></g><g
                 id="g566"><path
                   d="m 178.6,841 -72,-18 72,-18 0,36"
                   id="path568"
                   style="fill:#000000;fill-opacity:1;fill-rule:evenodd;stroke:none" /><path
                   d="m 178.6,841 -72,-18 72,-18 0,36 z"
                   id="path570"
                   style="fill:none;stroke:#000000;stroke-width:4.5;stroke-linecap:butt;stroke-linejoin:miter;stroke-miterlimit:10;stroke-opacity:1;stroke-dasharray:none" /></g><g
                 id="g572"><g
                   clip-path="url(#clipPath576-6)"
                   id="g574"><path
                     d="m 97,598 1440,0"
                     id="path580"
                     style="fill:none;stroke:#000000;stroke-width:4.5;stroke-linecap:butt;stroke-linejoin:miter;stroke-miterlimit:10;stroke-opacity:1;stroke-dasharray:none" /></g></g><g
                 id="g582"><path
                   d="m 1455.4,580 72,18 -72,18 0,-36"
                   id="path584"
                   style="fill:#000000;fill-opacity:1;fill-rule:evenodd;stroke:none" /><path
                   d="m 1455.4,580 72,18 -72,18 0,-36 z"
                   id="path586"
                   style="fill:none;stroke:#000000;stroke-width:4.5;stroke-linecap:butt;stroke-linejoin:miter;stroke-miterlimit:10;stroke-opacity:1;stroke-dasharray:none" /></g><g
                 id="g588"><g
                   clip-path="url(#clipPath592-3)"
                   id="g590"><path
                     d="m 1537,553 1440,0"
                     id="path596"
                     style="fill:none;stroke:#000000;stroke-width:4.5;stroke-linecap:butt;stroke-linejoin:miter;stroke-miterlimit:10;stroke-opacity:1;stroke-dasharray:none" /></g></g><g
                 id="g598"><path
                   d="m 2895.4,535 72,18 -72,18 0,-36"
                   id="path600"
                   style="fill:#000000;fill-opacity:1;fill-rule:evenodd;stroke:none" /><path
                   d="m 2895.4,535 72,18 -72,18 0,-36 z"
                   id="path602"
                   style="fill:none;stroke:#000000;stroke-width:4.5;stroke-linecap:butt;stroke-linejoin:miter;stroke-miterlimit:10;stroke-opacity:1;stroke-dasharray:none" /></g><g
                 id="g604"><g
                   clip-path="url(#clipPath608-1)"
                   id="g606"><path
                     d="m 2977,508 1305,0"
                     id="path612"
                     style="fill:none;stroke:#000000;stroke-width:4.5;stroke-linecap:butt;stroke-linejoin:miter;stroke-miterlimit:10;stroke-opacity:1;stroke-dasharray:none" /></g></g><g
                 id="g614"><path
                   d="m 4200.4,490 72,18 -72,18 0,-36"
                   id="path616"
                   style="fill:#000000;fill-opacity:1;fill-rule:evenodd;stroke:none" /><path
                   d="m 4200.4,490 72,18 -72,18 0,-36 z"
                   id="path618"
                   style="fill:none;stroke:#000000;stroke-width:4.5;stroke-linecap:butt;stroke-linejoin:miter;stroke-miterlimit:10;stroke-opacity:1;stroke-dasharray:none" /></g><g
                 id="g620"><g
                   clip-path="url(#clipPath624-2)"
                   id="g622"><path
                     d="m 4282,328 -1305,0"
                     id="path628"
                     style="fill:none;stroke:#000000;stroke-width:4.5;stroke-linecap:butt;stroke-linejoin:miter;stroke-miterlimit:10;stroke-opacity:1;stroke-dasharray:none" /></g></g><g
                 id="g630"><path
                   d="m 3058.6,346 -72,-18 72,-18 0,36"
                   id="path632"
                   style="fill:#000000;fill-opacity:1;fill-rule:evenodd;stroke:none" /><path
                   d="m 3058.6,346 -72,-18 72,-18 0,36 z"
                   id="path634"
                   style="fill:none;stroke:#000000;stroke-width:4.5;stroke-linecap:butt;stroke-linejoin:miter;stroke-miterlimit:10;stroke-opacity:1;stroke-dasharray:none" /></g><g
                 id="g636"><g
                   clip-path="url(#clipPath640-5)"
                   id="g638"><path
                     d="m 4282,283 -1305,0"
                     id="path644"
                     style="fill:none;stroke:#000000;stroke-width:4.5;stroke-linecap:butt;stroke-linejoin:miter;stroke-miterlimit:10;stroke-opacity:1;stroke-dasharray:none" /></g></g><g
                 id="g646"><path
                   d="m 3058.6,301 -72,-18 72,-18 0,36"
                   id="path648"
                   style="fill:#000000;fill-opacity:1;fill-rule:evenodd;stroke:none" /><path
                   d="m 3058.6,301 -72,-18 72,-18 0,36 z"
                   id="path650"
                   style="fill:none;stroke:#000000;stroke-width:4.5;stroke-linecap:butt;stroke-linejoin:miter;stroke-miterlimit:10;stroke-opacity:1;stroke-dasharray:none" /></g><g
                 id="g652"><g
                   clip-path="url(#clipPath656-3)"
                   id="g654"><path
                     d="m 4282,238 -1305,0"
                     id="path660"
                     style="fill:none;stroke:#000000;stroke-width:4.5;stroke-linecap:butt;stroke-linejoin:miter;stroke-miterlimit:10;stroke-opacity:1;stroke-dasharray:none" /></g></g><g
                 id="g662"><path
                   d="m 3058.6,256 -72,-18 72,-18 0,36"
                   id="path664"
                   style="fill:#000000;fill-opacity:1;fill-rule:evenodd;stroke:none" /><path
                   d="m 3058.6,256 -72,-18 72,-18 0,36 z"
                   id="path666"
                   style="fill:none;stroke:#000000;stroke-width:4.5;stroke-linecap:butt;stroke-linejoin:miter;stroke-miterlimit:10;stroke-opacity:1;stroke-dasharray:none" /></g><g
                 id="g668"><g
                   clip-path="url(#clipPath672-2)"
                   id="g670"><path
                     d="m 2977,283 -1440,0"
                     id="path676"
                     style="fill:none;stroke:#000000;stroke-width:4.5;stroke-linecap:butt;stroke-linejoin:miter;stroke-miterlimit:10;stroke-opacity:1;stroke-dasharray:none" /></g></g><g
                 id="g678"><path
                   d="m 1618.6,301 -72,-18 72,-18 0,36"
                   id="path680"
                   style="fill:#000000;fill-opacity:1;fill-rule:evenodd;stroke:none" /><path
                   d="m 1618.6,301 -72,-18 72,-18 0,36 z"
                   id="path682"
                   style="fill:none;stroke:#000000;stroke-width:4.5;stroke-linecap:butt;stroke-linejoin:miter;stroke-miterlimit:10;stroke-opacity:1;stroke-dasharray:none" /></g><g
                 id="g684"><g
                   clip-path="url(#clipPath688-6)"
                   id="g686"><path
                     d="m 2977,193 -1440,0"
                     id="path692"
                     style="fill:none;stroke:#000000;stroke-width:4.5;stroke-linecap:butt;stroke-linejoin:miter;stroke-miterlimit:10;stroke-opacity:1;stroke-dasharray:none" /></g></g><g
                 id="g694"><path
                   d="m 1618.6,211 -72,-18 72,-18 0,36"
                   id="path696"
                   style="fill:#000000;fill-opacity:1;fill-rule:evenodd;stroke:none" /><path
                   d="m 1618.6,211 -72,-18 72,-18 0,36 z"
                   id="path698"
                   style="fill:none;stroke:#000000;stroke-width:4.5;stroke-linecap:butt;stroke-linejoin:miter;stroke-miterlimit:10;stroke-opacity:1;stroke-dasharray:none" /></g><g
                 id="g700"><g
                   clip-path="url(#clipPath704-8)"
                   id="g702"><path
                     d="m 2977,238 -1440,0"
                     id="path708"
                     style="fill:none;stroke:#000000;stroke-width:4.5;stroke-linecap:butt;stroke-linejoin:miter;stroke-miterlimit:10;stroke-opacity:1;stroke-dasharray:none" /></g></g><g
                 id="g710"><path
                   d="m 1618.6,256 -72,-18 72,-18 0,36"
                   id="path712"
                   style="fill:#000000;fill-opacity:1;fill-rule:evenodd;stroke:none" /><path
                   d="m 1618.6,256 -72,-18 72,-18 0,36 z"
                   id="path714"
                   style="fill:none;stroke:#000000;stroke-width:4.5;stroke-linecap:butt;stroke-linejoin:miter;stroke-miterlimit:10;stroke-opacity:1;stroke-dasharray:none" /></g><g
                 id="g716"><g
                   clip-path="url(#clipPath720-4)"
                   id="g718"><path
                     d="M 1537,193 97,193"
                     id="path724"
                     style="fill:none;stroke:#000000;stroke-width:4.5;stroke-linecap:butt;stroke-linejoin:miter;stroke-miterlimit:10;stroke-opacity:1;stroke-dasharray:none" /></g></g><g
                 id="g726"><path
                   d="m 178.6,211 -72,-18 72,-18 0,36"
                   id="path728"
                   style="fill:#000000;fill-opacity:1;fill-rule:evenodd;stroke:none" /><path
                   d="m 178.6,211 -72,-18 72,-18 0,36 z"
                   id="path730"
                   style="fill:none;stroke:#000000;stroke-width:4.5;stroke-linecap:butt;stroke-linejoin:miter;stroke-miterlimit:10;stroke-opacity:1;stroke-dasharray:none" /></g><g
                 id="g732"><g
                   clip-path="url(#clipPath736-0)"
                   id="g734"><path
                     d="M 1537,148 97,148"
                     id="path740"
                     style="fill:none;stroke:#000000;stroke-width:4.5;stroke-linecap:butt;stroke-linejoin:miter;stroke-miterlimit:10;stroke-opacity:1;stroke-dasharray:none" /></g></g><g
                 id="g742"><path
                   d="m 178.6,166 -72,-18 72,-18 0,36"
                   id="path744"
                   style="fill:#000000;fill-opacity:1;fill-rule:evenodd;stroke:none" /><path
                   d="m 178.6,166 -72,-18 72,-18 0,36 z"
                   id="path746"
                   style="fill:none;stroke:#000000;stroke-width:4.5;stroke-linecap:butt;stroke-linejoin:miter;stroke-miterlimit:10;stroke-opacity:1;stroke-dasharray:none" /></g><g
                 id="g748"><g
                   clip-path="url(#clipPath752-6)"
                   id="g750"><path
                     d="M 1537,103 97,103"
                     id="path756"
                     style="fill:none;stroke:#000000;stroke-width:4.5;stroke-linecap:butt;stroke-linejoin:miter;stroke-miterlimit:10;stroke-opacity:1;stroke-dasharray:none" /></g></g><g
                 id="g758"><path
                   d="m 178.6,121 -72,-18 72,-17.9998 0,35.9998"
                   id="path760"
                   style="fill:#000000;fill-opacity:1;fill-rule:evenodd;stroke:none" /><path
                   d="m 178.6,121 -72,-18 72,-17.9998 0,35.9998 z"
                   id="path762"
                   style="fill:none;stroke:#000000;stroke-width:4.5;stroke-linecap:butt;stroke-linejoin:miter;stroke-miterlimit:10;stroke-opacity:1;stroke-dasharray:none" /><path
                   d="M 4282,2218 4282,13.0002"
                   id="path764"
                   style="fill:none;stroke:#000000;stroke-width:9;stroke-linecap:butt;stroke-linejoin:miter;stroke-miterlimit:10;stroke-opacity:1;stroke-dasharray:none" /><path
                   d="m 3157,1363 990,0 0,540 -990,0 0,-540 z"
                   id="path766"
                   style="fill:#ffffff;fill-opacity:1;fill-rule:evenodd;stroke:none" /><path
                   d="m 3157,1363 990,0 0,540 -990,0 0,-540 z"
                   id="path768"
                   style="fill:none;stroke:#000000;stroke-width:4.5;stroke-linecap:butt;stroke-linejoin:miter;stroke-miterlimit:10;stroke-opacity:1;stroke-dasharray:none" /><g
                   transform="scale(10,10)"
                   id="g770"><text
                     transform="matrix(1,0,0,-1,140.2,226.3)"
                     id="text772"><tspan
                       x="0 8.4024 16.200001 21.6 -139.5 -131.70239 -128.7 -125.6976 -120.9024 144 152.4024 160.2 165.60001"
                       y="0"
                       id="tspan774"
                       style="font-size:10.80000019px;font-variant:normal;font-weight:bold;writing-mode:lr-tb;fill:#000000;fill-opacity:1;fill-rule:nonzero;stroke:none;font-family:Times;-inkscape-font-specification:Times-Bold">OR 1AliceOR 2</tspan></text>
<text
                     transform="matrix(1,0,0,-1,302.2,55.3)"
                     id="text776"><tspan
                       x="0 3.6719999 10.17 15.669 21.167999 26.172001 28.422001 34.919998 40.418999 45.917999 48.167999 50.417999 52.667999"
                       y="0"
                       id="tspan778"
                       style="font-size:9px;font-variant:normal;font-weight:normal;writing-mode:lr-tb;fill:#000000;fill-opacity:1;fill-rule:nonzero;stroke:none;font-family:Times;-inkscape-font-specification:Times-Roman">&quot;HTTP GET...&quot;</tspan><tspan
                       x="-82.124901 -79.874901 -77.624901 -75.374901 -73.124901 57.375099 59.625099 61.875099 64.125099 66.375099 -226.12489 -223.87489 -221.62489 -219.37489 -217.12489"
                       y="54"
                       id="tspan780"
                       style="font-size:9px;font-variant:normal;font-weight:normal;writing-mode:lr-tb;fill:#000000;fill-opacity:1;fill-rule:nonzero;stroke:none;font-family:Times;-inkscape-font-specification:Times-Roman">. . .. . .. . .</tspan><tspan
                       x="31.6311 34.628101 40.127102 46.1301 51.134102 53.384102 57.884102 61.8801 66.380096 70.880096 74.381104 78.881104 82.877098 87.377098 91.3731"
                       y="-45"
                       id="tspan782"
                       style="font-size:9px;font-variant:normal;font-weight:normal;writing-mode:lr-tb;fill:#000000;fill-opacity:1;fill-rule:nonzero;stroke:none;font-family:Times;-inkscape-font-specification:Times-Roman">(TCP handshake)</tspan></text>
<text
                     transform="matrix(1,0,0,-1,410.2005,226.3)"
                     id="text784"><tspan
                       x="0 7.7975998 12.5928 18.597601 22.7988 25.801201 29.3976"
                       y="0"
                       id="tspan786"
                       style="font-size:10.80000019px;font-variant:normal;font-weight:bold;writing-mode:lr-tb;fill:#000000;fill-opacity:1;fill-rule:nonzero;stroke:none;font-family:Times;-inkscape-font-specification:Times-Bold">website</tspan></text>
<text
                     transform="matrix(1,0,0,-1,323.6836,154.3)"
                     id="text788"><tspan
                       x="0 4.3200002 10.818 15.138 20.214001 25.290001 31.788 37.286999 42.291 44.541 48.536999 53.036999 57.033001 60.029999 64.529999 69.029999 71.531998 74.033997 78.533997"
                       y="0"
                       id="tspan790"
                       style="font-size:9px;font-variant:normal;font-weight:normal;writing-mode:lr-tb;fill:#000000;fill-opacity:1;fill-rule:nonzero;stroke:none;font-family:Times;-inkscape-font-specification:Times-Roman">{X}−−AES encryption</tspan><tspan
                       x="-0.67946798 4.8195319 7.8165321 12.316532 15.313532 20.389532 25.465532 31.468533 36.47253 42.970531 45.220531 49.216534 53.716534 57.712532 60.709534 65.209534 69.709534 72.211533 74.713531 79.213531"
                       y="-13.5"
                       id="tspan792"
                       style="font-size:9px;font-variant:normal;font-weight:normal;writing-mode:lr-tb;fill:#000000;fill-opacity:1;fill-rule:nonzero;stroke:none;font-family:Times;-inkscape-font-specification:Times-Roman">E(x)−−RSA encryption</tspan><tspan
                       x="26.770432 32.269432 36.26543 40.76543 44.761433 49.261433 53.761433"
                       y="-27"
                       id="tspan794"
                       style="font-size:9px;font-variant:normal;font-weight:normal;writing-mode:lr-tb;fill:#000000;fill-opacity:1;fill-rule:nonzero;stroke:none;font-family:Times;-inkscape-font-specification:Times-Roman">Legend:</tspan><tspan
                       x="-285.51556 -282.51855 -280.01657 -277.51456 -273.01456 -268.51456 -266.26456 -263.76257 -260.26157 -258.01157 -252.51257 -247.01357 -242.00957 -236.93356 -232.93756 -228.43756 -224.44157 -221.44456 -216.94456 -212.44456 -209.94257 -205.94656 -201.44656"
                       y="-72"
                       id="tspan796"
                       style="font-size:9px;font-variant:normal;font-weight:normal;writing-mode:lr-tb;fill:#000000;fill-opacity:1;fill-rule:nonzero;stroke:none;font-family:Times;-inkscape-font-specification:Times-Roman">(link is TLS−encrypted)</tspan><tspan
                       x="-309.48276 -303.47977 -299.48376 -296.98178 -292.98578 -288.48578 -286.23578 -282.23978 -277.73978 -273.41977 -267.92078 -263.42078 -260.91876 -256.92276 -252.42278 -247.92278 -245.67278 -243.42278 -236.92477 -230.92177 -226.42177 -224.17177 -221.92177 -216.42278 -213.42577 -208.92577 -204.70477 -200.20477 -195.70477 -192.70776"
                       y="-22.5"
                       id="tspan798"
                       style="font-size:9px;font-variant:normal;font-weight:normal;writing-mode:lr-tb;fill:#000000;fill-opacity:1;fill-rule:nonzero;stroke:none;font-family:Times;-inkscape-font-specification:Times-Roman">Relay c1{Extend, OR2, E(g^x2)}</tspan><tspan
                       x="-309.48276 -303.47977 -299.48376 -296.98178 -292.98578 -288.48578 -286.23578 -282.23978 -277.73978 -273.41977 -269.09976 -263.09677 -259.10077 -254.60077 -252.09877 -247.59877 -245.34877 -240.27277 -233.77477 -229.77876 -225.27876 -221.77777 -219.27577 -216.77377 -212.77777 -207.70177 -205.19977 -200.69977 -196.19977 -191.87976"
                       y="36"
                       id="tspan800"
                       style="font-size:9px;font-variant:normal;font-weight:normal;writing-mode:lr-tb;fill:#000000;fill-opacity:1;fill-rule:nonzero;stroke:none;font-family:Times;-inkscape-font-specification:Times-Roman">Relay c1{{Begin &lt;website&gt;:80}}</tspan><tspan
                       x="-299.06927 -293.06625 -289.07028 -286.56827 -282.57227 -278.07227 -275.82227 -271.82626 -267.32626 -263.00626 -257.50726 -253.00726 -250.50526 -246.50926 -242.00926 -237.50926 -233.51328 -229.01328 -226.76328 -224.51328 -220.01328 -215.79227 -211.29227 -206.79227 -204.54227 -202.29227 -195.79427 -192.79727 -186.29927 -181.79927 -178.80226"
                       y="4.5"
                       id="tspan802"
                       style="font-size:9px;font-variant:normal;font-weight:normal;writing-mode:lr-tb;fill:#000000;fill-opacity:1;fill-rule:nonzero;stroke:none;font-family:Times;-inkscape-font-specification:Times-Roman">Relay c1{Extended, g^y2, H(K2)}</tspan><tspan
                       x="-165.48326 -159.48027 -155.48427 -152.98227 -148.98627 -144.48627 -142.23627 -138.24026 -133.74026 -129.42027 -123.41727 -119.42126 -114.92126 -112.41927 -107.91927 -105.66927 -100.59327 -94.095268 -90.099266 -85.599266 -82.098267 -79.596268 -77.094269 -73.098267 -68.02227 -65.520271 -61.020267 -56.520267"
                       y="40.5"
                       id="tspan804"
                       style="font-size:9px;font-variant:normal;font-weight:normal;writing-mode:lr-tb;fill:#000000;fill-opacity:1;fill-rule:nonzero;stroke:none;font-family:Times;-inkscape-font-specification:Times-Roman">Relay c2{Begin &lt;website&gt;:80}</tspan><tspan
                       x="-261.99896 -255.99597 -251.99997 -249.49797 -245.50197 -241.00197 -238.75197 -234.75597 -230.25597 -225.93597 -221.61597 -215.61296 -211.11296 -206.61296 -202.11296 -198.11697 -194.12097 -191.61897 -187.62297 -183.12297 -178.80296"
                       y="67.5"
                       id="tspan806"
                       style="font-size:9px;font-variant:normal;font-weight:normal;writing-mode:lr-tb;fill:#000000;fill-opacity:1;fill-rule:nonzero;stroke:none;font-family:Times;-inkscape-font-specification:Times-Roman">Relay c1{{Connected}}</tspan><tspan
                       x="-109.35897 -103.35596 -99.35997 -96.857971 -92.861969 -88.361969 -86.111969 -82.115967 -77.615967 -73.295967 -67.292969 -62.792969 -58.292969 -53.792969 -49.796967 -45.800968 -43.298969 -39.302967 -34.802967"
                       y="63"
                       id="tspan808"
                       style="font-size:9px;font-variant:normal;font-weight:normal;writing-mode:lr-tb;fill:#000000;fill-opacity:1;fill-rule:nonzero;stroke:none;font-family:Times;-inkscape-font-specification:Times-Roman">Relay c2{Connected}</tspan><tspan
                       x="-309.48297 -303.47998 -299.48398 -296.98196 -292.98596 -288.48596 -286.23596 -282.23996 -277.73996 -273.41998 -269.09998 -262.60196 -258.60596 -256.10397 -252.10797 -249.85797 -247.60797 -243.93597 -237.43797 -231.93896 -226.43997 -221.43597 -219.18597 -212.68797 -207.18896 -201.68997 -199.43997 -197.18997 -194.93997 -191.26797 -186.94797"
                       y="90"
                       id="tspan810"
                       style="font-size:9px;font-variant:normal;font-weight:normal;writing-mode:lr-tb;fill:#000000;fill-opacity:1;fill-rule:nonzero;stroke:none;font-family:Times;-inkscape-font-specification:Times-Roman">Relay c1{{Data, &quot;HTTP GET...&quot;}}</tspan><tspan
                       x="-165.48297 -159.47997 -155.48396 -152.98196 -148.98596 -144.48596 -142.23596 -138.23997 -133.73997 -129.41997 -122.92197 -118.92596 -116.42397 -112.42797 -110.17797 -107.92797 -104.25597 -97.757965 -92.258965 -86.759972 -81.755966 -79.505966 -73.007965 -67.508965 -62.009968 -59.759968 -57.509968 -55.259968 -51.587967"
                       y="94.5"
                       id="tspan812"
                       style="font-size:9px;font-variant:normal;font-weight:normal;writing-mode:lr-tb;fill:#000000;fill-opacity:1;fill-rule:nonzero;stroke:none;font-family:Times;-inkscape-font-specification:Times-Roman">Relay c2{Data, &quot;HTTP GET...&quot;}</tspan><tspan
                       x="-140.26477 -137.26776 -134.76576 -132.26376 -127.76377 -123.26377 -121.01377 -118.51176 -115.01077 -112.76077 -107.26176 -101.76277 -96.758766 -91.68277 -87.686768 -83.186768 -79.190765 -76.193771 -71.693771 -67.193771 -63.197769 -58.697769 11.776232 14.773232 19.273232 23.773232 27.769232 32.269234 36.265232 39.262234 43.762234 48.262234 50.764233 54.760231 59.260231"
                       y="-72"
                       id="tspan814"
                       style="font-size:9px;font-variant:normal;font-weight:normal;writing-mode:lr-tb;fill:#000000;fill-opacity:1;fill-rule:nonzero;stroke:none;font-family:Times;-inkscape-font-specification:Times-Roman">(link is TLS−encryped)(unencrypted)</tspan><tspan
                       x="16.577692 20.573692 27.071692 32.147694 37.223694 41.219692 43.469692 47.465691 49.967693 52.964691 56.960693 59.957691"
                       y="13.5"
                       id="tspan816"
                       style="font-size:9px;font-variant:normal;font-weight:normal;writing-mode:lr-tb;fill:#000000;fill-opacity:1;fill-rule:nonzero;stroke:none;font-family:Times;-inkscape-font-specification:Times-Roman">cN−−a circID</tspan><tspan
                       x="-282.48331 -276.48032 -272.48431 -269.9823 -265.9863 -261.4863 -259.2363 -255.24031 -250.74031 -246.4203 -242.10031 -235.60231 -231.60631 -229.10431 -225.10831 -222.85831 -220.60831 -217.61131 -214.6143 -210.6183 -207.11731 -202.61731 -198.11731 -193.61731 -190.1163 -186.12032 -183.12331 -178.80331"
                       y="130.5"
                       id="tspan818"
                       style="font-size:9px;font-variant:normal;font-weight:normal;writing-mode:lr-tb;fill:#000000;fill-opacity:1;fill-rule:nonzero;stroke:none;font-family:Times;-inkscape-font-specification:Times-Roman">Relay c1{{Data, (response)}}</tspan><tspan
                       x="62.531693 65.528694 68.525696 72.52169 76.02269 80.52269 85.02269 89.52269 93.023689 97.019691"
                       y="117"
                       id="tspan820"
                       style="font-size:9px;font-variant:normal;font-weight:normal;writing-mode:lr-tb;fill:#000000;fill-opacity:1;fill-rule:nonzero;stroke:none;font-family:Times;-inkscape-font-specification:Times-Roman">(response)</tspan><tspan
                       x="-129.84331 -123.84031 -119.84431 -117.34231 -113.34631 -108.84631 -106.59631 -102.60031 -98.100311 -93.780312 -87.28231 -83.286308 -80.784309 -76.788307 -74.538307 -72.288307 -69.291306 -66.294312 -62.298309 -58.79731 -54.29731 -49.79731 -45.29731 -41.796307 -37.800308 -34.803307"
                       y="121.5"
                       id="tspan822"
                       style="font-size:9px;font-variant:normal;font-weight:normal;writing-mode:lr-tb;fill:#000000;fill-opacity:1;fill-rule:nonzero;stroke:none;font-family:Times;-inkscape-font-specification:Times-Roman">Relay c2{Data, (response)}</tspan><tspan
                       x="-119.43031 -113.42731 -110.43031 -106.43431 -102.43831 -99.93631 -95.940308 -91.440308 -89.190308 -85.194305 -80.694305 -78.444305 -76.194305 -71.694305 -67.473305 -62.973309 -58.473309 -56.223309 -53.973309 -47.475307 -44.47831 -37.980309 -33.480309"
                       y="0"
                       id="tspan824"
                       style="font-size:9px;font-variant:normal;font-weight:normal;writing-mode:lr-tb;fill:#000000;fill-opacity:1;fill-rule:nonzero;stroke:none;font-family:Times;-inkscape-font-specification:Times-Roman">Created c2, g^y2, H(K2)</tspan><tspan
                       x="-165.4837 -159.48071 -156.4837 -152.4877 -148.49171 -145.98972 -141.99371 -139.74371 -135.74771 -131.24771 -128.99771 -126.74771 -121.24871 -118.25171 -113.75171 -109.53071 -105.03071 -100.53071"
                       y="-18"
                       id="tspan826"
                       style="font-size:9px;font-variant:normal;font-weight:normal;writing-mode:lr-tb;fill:#000000;fill-opacity:1;fill-rule:nonzero;stroke:none;font-family:Times;-inkscape-font-specification:Times-Roman">Create c2, E(g^x2)</tspan><tspan
                       x="-309.4837 -303.48071 -300.4837 -296.4877 -292.4917 -289.98972 -285.99371 -283.74371 -279.74771 -275.24771 -272.99771 -270.74771 -265.24872 -262.25171 -257.75171 -253.5307 -249.0307 -244.5307"
                       y="-58.5"
                       id="tspan828"
                       style="font-size:9px;font-variant:normal;font-weight:normal;writing-mode:lr-tb;fill:#000000;fill-opacity:1;fill-rule:nonzero;stroke:none;font-family:Times;-inkscape-font-specification:Times-Roman">Create c1, E(g^x1)</tspan><tspan
                       x="-263.4303 -257.42731 -254.43031 -250.43431 -246.43831 -243.93631 -239.94031 -235.44031 -233.19031 -229.19431 -224.69431 -222.44431 -220.19431 -215.69431 -211.47331 -206.97331 -202.47331 -200.22331 -197.97331 -191.47531 -188.4783 -181.9803 -177.4803"
                       y="-40.5"
                       id="tspan830"
                       style="font-size:9px;font-variant:normal;font-weight:normal;writing-mode:lr-tb;fill:#000000;fill-opacity:1;fill-rule:nonzero;stroke:none;font-family:Times;-inkscape-font-specification:Times-Roman">Created c1, g^y1, H(K1)</tspan></text>
</g></g></g></g></g></g></g></g></svg>