<?xml version="1.0" encoding="UTF-8"?>
<!DOCTYPE svg PUBLIC "-//W3C//DTD SVG 1.1//EN" "http://www.w3.org/Graphics/SVG/1.1/DTD/svg11.dtd">
<svg width="194mm" height="63mm" viewBox="0 0 19400 6300" version="1.1" xmlns="http://www.w3.org/2000/svg" stroke-width="28.222" stroke-linejoin="round" xml:space="preserve">
 <path fill="rgb(255,255,255)" stroke="none" d="M 9695,6268 L 0,6268 0,0 19390,0 19390,6268 9695,6268 Z"/>
 <path fill="none" stroke="rgb(179,179,179)" stroke-linejoin="round" d="M 9636,4815 L 596,4815 596,1396 18676,1396 18676,4815 9636,4815 Z"/>
 <path fill="none" stroke="rgb(179,179,179)" stroke-linejoin="round" d="M 596,1395 L 596,4814"/>
 <path fill="none" stroke="rgb(179,179,179)" stroke-linejoin="round" d="M 5116,1395 L 5116,4814"/>
 <path fill="none" stroke="rgb(179,179,179)" stroke-linejoin="round" d="M 9636,1395 L 9636,4814"/>
 <path fill="none" stroke="rgb(179,179,179)" stroke-linejoin="round" d="M 14155,1395 L 14155,4814"/>
 <path fill="none" stroke="rgb(179,179,179)" stroke-linejoin="round" d="M 18676,1395 L 18676,4814"/>
 <path fill="none" stroke="rgb(179,179,179)" stroke-linejoin="round" d="M 446,4814 L 596,4814"/>
 <path fill="none" stroke="rgb(179,179,179)" stroke-linejoin="round" d="M 446,4814 L 596,4814"/>
 <path fill="none" stroke="rgb(179,179,179)" stroke-linejoin="round" d="M 446,1395 L 596,1395"/>
 <path fill="none" stroke="rgb(179,179,179)" stroke-linejoin="round" d="M 446,1395 L 596,1395"/>
 <path fill="none" stroke="rgb(179,179,179)" stroke-linejoin="round" d="M 596,4814 L 596,1395"/>
 <path fill="none" stroke="rgb(179,179,179)" stroke-linejoin="round" d="M 596,4964 L 596,4814"/>
 <path fill="none" stroke="rgb(179,179,179)" stroke-linejoin="round" d="M 596,4964 L 596,4814"/>
 <path fill="none" stroke="rgb(179,179,179)" stroke-linejoin="round" d="M 5116,4964 L 5116,4814"/>
 <path fill="none" stroke="rgb(179,179,179)" stroke-linejoin="round" d="M 5116,4964 L 5116,4814"/>
 <path fill="none" stroke="rgb(179,179,179)" stroke-linejoin="round" d="M 9636,4964 L 9636,4814"/>
 <path fill="none" stroke="rgb(179,179,179)" stroke-linejoin="round" d="M 9636,4964 L 9636,4814"/>
 <path fill="none" stroke="rgb(179,179,179)" stroke-linejoin="round" d="M 14155,4964 L 14155,4814"/>
 <path fill="none" stroke="rgb(179,179,179)" stroke-linejoin="round" d="M 14155,4964 L 14155,4814"/>
 <path fill="none" stroke="rgb(179,179,179)" stroke-linejoin="round" d="M 18676,4964 L 18676,4814"/>
 <path fill="none" stroke="rgb(179,179,179)" stroke-linejoin="round" d="M 18676,4964 L 18676,4814"/>
 <path fill="none" stroke="rgb(179,179,179)" stroke-linejoin="round" d="M 1726,4814 L 1726,4702"/>
 <path fill="none" stroke="rgb(179,179,179)" stroke-linejoin="round" d="M 1726,4814 L 1726,4702"/>
 <path fill="none" stroke="rgb(179,179,179)" stroke-linejoin="round" d="M 2856,4814 L 2856,4702"/>
 <path fill="none" stroke="rgb(179,179,179)" stroke-linejoin="round" d="M 2856,4814 L 2856,4702"/>
 <path fill="none" stroke="rgb(179,179,179)" stroke-linejoin="round" d="M 3986,4814 L 3986,4702"/>
 <path fill="none" stroke="rgb(179,179,179)" stroke-linejoin="round" d="M 3986,4814 L 3986,4702"/>
 <path fill="none" stroke="rgb(179,179,179)" stroke-linejoin="round" d="M 6246,4814 L 6246,4702"/>
 <path fill="none" stroke="rgb(179,179,179)" stroke-linejoin="round" d="M 6246,4814 L 6246,4702"/>
 <path fill="none" stroke="rgb(179,179,179)" stroke-linejoin="round" d="M 7376,4814 L 7376,4702"/>
 <path fill="none" stroke="rgb(179,179,179)" stroke-linejoin="round" d="M 7376,4814 L 7376,4702"/>
 <path fill="none" stroke="rgb(179,179,179)" stroke-linejoin="round" d="M 8506,4814 L 8506,4702"/>
 <path fill="none" stroke="rgb(179,179,179)" stroke-linejoin="round" d="M 8506,4814 L 8506,4702"/>
 <path fill="none" stroke="rgb(179,179,179)" stroke-linejoin="round" d="M 10765,4814 L 10765,4702"/>
 <path fill="none" stroke="rgb(179,179,179)" stroke-linejoin="round" d="M 10765,4814 L 10765,4702"/>
 <path fill="none" stroke="rgb(179,179,179)" stroke-linejoin="round" d="M 11895,4814 L 11895,4702"/>
 <path fill="none" stroke="rgb(179,179,179)" stroke-linejoin="round" d="M 11895,4814 L 11895,4702"/>
 <path fill="none" stroke="rgb(179,179,179)" stroke-linejoin="round" d="M 13025,4814 L 13025,4702"/>
 <path fill="none" stroke="rgb(179,179,179)" stroke-linejoin="round" d="M 13025,4814 L 13025,4702"/>
 <path fill="none" stroke="rgb(179,179,179)" stroke-linejoin="round" d="M 15285,4814 L 15285,4702"/>
 <path fill="none" stroke="rgb(179,179,179)" stroke-linejoin="round" d="M 15285,4814 L 15285,4702"/>
 <path fill="none" stroke="rgb(179,179,179)" stroke-linejoin="round" d="M 16415,4814 L 16415,4702"/>
 <path fill="none" stroke="rgb(179,179,179)" stroke-linejoin="round" d="M 16415,4814 L 16415,4702"/>
 <path fill="none" stroke="rgb(179,179,179)" stroke-linejoin="round" d="M 17545,4814 L 17545,4702"/>
 <path fill="none" stroke="rgb(179,179,179)" stroke-linejoin="round" d="M 17545,4814 L 17545,4702"/>
 <path fill="none" stroke="rgb(179,179,179)" stroke-linejoin="round" d="M 596,4814 L 18676,4814"/>
 <path fill="none" stroke="rgb(0,0,0)" stroke-width="51" stroke-linejoin="round" d="M 9957,3959 L 9957,2249 12230,2249 12230,3959 9957,3959 Z"/>
 <path fill="none" stroke="rgb(0,0,0)" stroke-width="51" stroke-linejoin="round" d="M 12230,3959 L 12230,2249 13331,2249 13331,3959 12230,3959 Z"/>
 <path fill="none" stroke="rgb(0,0,0)" stroke-linejoin="round" d="M 6227,3104 L 9957,3104"/>
 <path fill="none" stroke="rgb(0,0,0)" stroke-linejoin="round" d="M 6227,3204 L 6227,3004"/>
 <path fill="none" stroke="rgb(0,0,0)" stroke-linejoin="round" d="M 13331,3104 L 14432,3104"/>
 <path fill="none" stroke="rgb(0,0,0)" stroke-linejoin="round" d="M 14432,3004 L 14432,3204"/>
 <text class="TextShape"><tspan class="TextParagraph" font-family="Liberation Sans, sans-serif" font-size="388px" font-weight="400"><tspan class="TextPosition" x="384" y="5434"><tspan fill="rgb(0,0,0)" stroke="none">50</tspan></tspan></tspan></text>
 <text class="TextShape"><tspan class="TextParagraph" font-family="Liberation Sans, sans-serif" font-size="388px" font-weight="400"><tspan class="TextPosition" x="4798" y="5434"><tspan fill="rgb(0,0,0)" stroke="none">100</tspan></tspan></tspan></text>
 <text class="TextShape"><tspan class="TextParagraph" font-family="Liberation Sans, sans-serif" font-size="388px" font-weight="400"><tspan class="TextPosition" x="9318" y="5434"><tspan fill="rgb(0,0,0)" stroke="none">150</tspan></tspan></tspan></text>
 <text class="TextShape"><tspan class="TextParagraph" font-family="Liberation Sans, sans-serif" font-size="388px" font-weight="400"><tspan class="TextPosition" x="13838" y="5434"><tspan fill="rgb(0,0,0)" stroke="none">200</tspan></tspan></tspan></text>
 <text class="TextShape"><tspan class="TextParagraph" font-family="Liberation Sans, sans-serif" font-size="388px" font-weight="400"><tspan class="TextPosition" x="18359" y="5434"><tspan fill="rgb(0,0,0)" stroke="none">250</tspan></tspan></tspan></text>
 <text class="TextShape"><tspan class="TextParagraph" font-family="Liberation Sans, sans-serif" font-size="529px" font-weight="700"><tspan class="TextPosition" x="7510" y="635"><tspan fill="rgb(0,0,0)" stroke="none">6-hop Bandwidth</tspan></tspan></tspan></text>
 <text class="TextShape"><tspan class="TextParagraph" font-family="Liberation Sans, sans-serif" font-size="494px" font-weight="400"><tspan class="TextPosition" x="7243" y="1144"><tspan fill="rgb(0,0,0)" stroke="none">5th to 95th Percentile</tspan></tspan></tspan></text>
 <text class="TextShape"><tspan class="TextParagraph" font-family="Liberation Sans, sans-serif" font-size="423px" font-weight="400"><tspan class="TextPosition" x="8115" y="6062"><tspan fill="rgb(0,0,0)" stroke="none">Kilobytes/second</tspan></tspan></tspan></text>
</svg>